PathFileType	4	(X/Y/Z)	E:\Qualisys_Data\Carbon_Farble_Plate\Data\Amateur_Runner\S14\T2\S14T2V12_c3d.trc
DataRate	CameraRate	NumFrames	NumMarkers	Units	OrigDataRate	OrigDataStartFrame	OrigNumFrames
200.000000	200.000000	4	39	mm	200.000000	121	325
Frame#	Time	LSHO			RSHO			LICST			RICST			LASIS			LHEEL			RASIS			LTROC			RTROC			SACR			LTH1			LSK4			LTH2			LTH3			RHM5			LSK2			LTH4			RTH1			LTOE			RTH2			RTH3			RTH4			LLEP			RLEP			LSK1			LSK3			RSK1			LHM5			RSK2			LFT1			RSK3			RSK4			LLME			RLME			RTOE			RHEEL			RFT1			RFT2			LFT2			
		X1	Y1	Z1	X2	Y2	Z2	X3	Y3	Z3	X4	Y4	Z4	X5	Y5	Z5	X6	Y6	Z6	X7	Y7	Z7	X8	Y8	Z8	X9	Y9	Z9	X10	Y10	Z10	X11	Y11	Z11	X12	Y12	Z12	X13	Y13	Z13	X14	Y14	Z14	X15	Y15	Z15	X16	Y16	Z16	X17	Y17	Z17	X18	Y18	Z18	X19	Y19	Z19	X20	Y20	Z20	X21	Y21	Z21	X22	Y22	Z22	X23	Y23	Z23	X24	Y24	Z24	X25	Y25	Z25	X26	Y26	Z26	X27	Y27	Z27	X28	Y28	Z28	X29	Y29	Z29	X30	Y30	Z30	X31	Y31	Z31	X32	Y32	Z32	X33	Y33	Z33	X34	Y34	Z34	X35	Y35	Z35	X36	Y36	Z36	X37	Y37	Z37	X38	Y38	Z38	X39	Y39	Z39	

122	0.605	-712.0855712890625	1386.726440429688	-530.3553466796875	-717.9317626953125	1400.017578125	-221.7644805908203	-791.2220458984375	954.5786743164062	-491.8110656738281	-762.6342163085938	954.6724243164062	-212.4351806640625	-746.7338256835938	905.2525634765624	-470.1683959960938	-1126.872924804688	125.29931640625	-339.4017333984375	-737.9102783203125	912.6084594726562	-234.2593231201172	-883.1856079101562	838.9987182617188	-499.9477233886719	-867.6513061523438	834.864501953125	-173.9724884033203	-913.9447021484376	945.3633422851562	-383.9039306640625	-808.7420654296875	608.4205932617188	-491.3130798339844	-983.6310424804688	296.2568054199219	-432.0124206542969	-883.3621826171875	608.6226806640625	-473.1908874511719	-798.4026489257812	512.9758911132812	-461.54833984375	-965.7186889648438	179.5780639648438	-185.1397399902344	-926.8175659179688	374.4860229492188	-454.9907836914062	-876.1378784179688	513.82470703125	-447.7431640625	-658.3447875976562	673.6852416992188	-166.8350677490234	-881.697265625	63.6761589050293	-364.5816650390625	-730.7343139648438	643.4192504882812	-156.4302062988281	-616.7552490234375	583.8646850585938	-186.6011047363281	-692.8352661132812	549.9163818359375	-169.7218475341797	-841.8150634765625	441.696533203125	-451.5260314941406	-651.1079711914062	501.1817626953125	-171.4217224121094	-858.3971557617188	330.2780151367188	-441.4013671875	-918.5830688476562	250.0111999511719	-420.737060546875	-720.955322265625	412.2735900878906	-178.7890472412109	-948.8623657226562	61.04489135742188	-432.1133117675781	-769.0004272460938	482.8446655273438	-175.4960021972656	-1122.997314453125	94.66509246826172	-319.621337890625	-809.66357421875	361.1377868652344	-196.4640197753906	-847.6754760742188	430.1586608886719	-192.2194213867188	-1054.583740234375	136.3619842529297	-404.2698059082031	-976.2130737304688	315.9620971679688	-218.1871948242188	-912.8176879882812	115.8287582397461	-241.2474060058594	-1025.590698242188	348.7037963867188	-277.2740783691406	-1044.191284179688	319.6920166015625	-304.3846435546875	-1049.456909179688	335.8182983398438	-250.1794281005859	-1131.132690429688	95.58095550537108	-374.4678039550781
123	0.61	-694.2835693359375	1391.058471679688	-529.3306274414062	-704.4483642578125	1403.959228515625	-221.1580505371094	-773.84912109375	957.4093017578124	-491.9560852050781	-746.4716186523438	958.6600952148438	-212.8706665039062	-729.9598999023438	908.1834106445312	-470.4898681640625	-1124.372802734375	130.2231292724609	-340.6012573242188	-723.7203369140625	916.2816772460938	-233.5255584716797	-866.9443359375	842.3218994140625	-500.3277893066406	-849.8954467773438	839.4955444335938	-173.4846649169922	-901.791015625	953.2083740234376	-385.0370178222656	-799.0287475585938	611.2261962890625	-491.3139953613281	-980.35009765625	300.8709716796875	-432.2667236328125	-873.7744750976562	613.4818725585938	-472.8213806152344	-791.3441162109375	515.2537841796875	-461.1057739257812	-932.31884765625	174.6258392333984	-183.6903076171875	-923.0732421875	378.1261596679688	-454.2746276855469	-869.492431640625	518.198974609375	-447.0167846679688	-638.8340454101562	680.0304565429688	-167.3681793212891	-881.3171997070312	63.59396362304688	-364.8236999511719	-710.910888671875	648.726806640625	-156.4976043701172	-596.5476684570312	590.6713256835938	-187.6737823486328	-672.0975952148438	555.691650390625	-170.7686157226562	-837.0524291992188	445.6871337890625	-451.5713195800781	-629.4441528320312	507.2541198730469	-172.1763153076172	-854.8860473632812	333.6795654296875	-441.110595703125	-915.9180297851562	253.7288360595703	-421.58935546875	-697.3397827148438	415.7138671875	-179.1670074462891	-948.1815795898438	61.16989898681641	-431.9254455566406	-747.7861938476562	484.7000427246094	-176.8075561523438	-1120.721923828125	99.74983978271484	-319.8010559082031	-783.9852294921875	361.5098266601562	-196.9351654052734	-824.7661743164062	429.1870727539062	-192.7135314941406	-1051.643310546875	140.2796936035156	-404.7731018066406	-948.6060180664062	310.0879211425781	-218.13330078125	-876.94580078125	112.6318664550781	-239.6688079833984	-999.72412109375	340.4980163574219	-276.984375	-1017.905395507812	310.4342041015625	-304.2010803222656	-1023.914306640625	327.2505493164062	-250.7373352050781	-1128.859252929688	101.0301666259766	-375.6766052246094
124	0.615	-676.4844970703125	1395.667236328125	-528.25439453125	-691.0350952148438	1408.340087890625	-220.8233795166016	-756.2313842773438	960.5327758789062	-492.1620788574219	-729.0630493164062	963.3190307617188	-212.3189392089844	-712.5979614257812	910.9945678710938	-470.4920043945312	-1121.3349609375	135.9743804931641	-341.7250061035156	-704.1456298828125	921.724853515625	-233.8526000976562	-850.6506958007812	845.63037109375	-500.3021545410156	-832.3146362304688	844.3082885742188	-172.7742462158203	-885.330078125	957.8831176757812	-385.2145080566406	-788.9630126953125	614.0135498046875	-490.607421875	-976.654296875	305.5623474121094	-432.7512512207031	-864.17333984375	618.6763916015625	-472.720703125	-784.3008422851562	518.4091796875	-460.6881103515625	-899.0801391601562	169.9490814208984	-182.0860900878906	-918.8546142578124	382.5736694335938	-454.1233215332031	-862.2987670898438	523.21533203125	-446.9865417480469	-619.7416381835938	686.4052124023438	-168.2190093994141	-880.7966918945312	63.59500885009766	-365.0262451171875	-691.2796630859375	654.337646484375	-156.7105712890625	-576.464111328125	597.4392700195312	-188.9043884277344	-651.4068603515625	561.4127197265625	-171.1042938232422	-831.7940673828125	449.1775817871094	-451.1936340332031	-608.263916015625	512.9310913085938	-173.2815704345703	-851.0105590820312	337.8858032226562	-441.6159057617188	-911.8467407226562	258.1373596191406	-422.1795654296875	-673.5450439453125	419.3110046386719	-179.7587127685547	-947.1314697265624	61.12963104248047	-431.6390686035156	-726.8860473632812	486.7100830078125	-178.0823974609375	-1118.782958984375	106.0819854736328	-320.6672058105469	-758.6175537109375	362.2381896972656	-196.5256958007812	-801.587890625	428.4114074707031	-193.5305328369141	-1048.796997070312	144.6123809814453	-405.6050415039062	-920.9823608398438	304.2002868652344	-217.5024108886719	-840.205322265625	110.2948379516602	-237.2315521240234	-973.4896240234376	331.5532531738281	-277.2142639160156	-990.239013671875	300.4941101074219	-304.3515930175781	-997.9234619140624	316.9478759765625	-251.1662139892578	-1126.300048828125	105.7850723266602	-375.7123107910156
125	0.62	-658.793701171875	1400.32470703125	-527.3373413085938	-677.2120361328125	1412.591186523438	-220.6017608642578	-738.5969848632812	963.718994140625	-492.1278991699219	-713.133056640625	968.0972290039062	-212.5803680419922	-695.2827758789062	913.7743530273438	-469.7186279296875	-1117.980712890625	141.8374633789062	-342.4851684570312	-688.0872192382812	926.0445556640624	-233.9724731445312	-833.8816528320312	849.4939575195312	-500.5013427734375	-814.7977905273438	849.0576782226562	-172.3505249023438	-868.4802856445312	960.9038696289062	-384.0953979492188	-779.0151977539062	617.6884155273438	-490.1623229980469	-972.179931640625	310.6700439453125	-433.318359375	-853.8302612304688	623.90576171875	-471.9177856445312	-776.928955078125	521.6552124023438	-460.22021484375	-865.1353759765625	165.5036926269531	-180.8105316162109	-914.095703125	387.8590393066406	-454.3849792480469	-854.5471801757812	528.731689453125	-446.8794555664062	-600.5787353515625	692.361572265625	-168.9127960205078	-880.0209350585938	63.36348342895508	-365.2119750976562	-671.600341796875	659.8096923828125	-156.7108459472656	-556.4550170898438	603.9110107421875	-190.2656860351562	-630.9065551757812	567.5629272460938	-171.9042663574219	-826.1036376953125	453.3991088867188	-450.9405212402344	-587.2503662109375	519.1504516601562	-174.1515045166016	-846.4535522460938	342.3888854980469	-441.766357421875	-908.3596801757812	262.8734130859375	-422.4262084960938	-650.8095092773438	423.4394836425781	-179.8983612060547	-945.987060546875	61.9272346496582	-432.1143493652344	-706.3787231445312	488.5610656738281	-179.4421539306641	-1115.414916992188	111.9554138183594	-322.008056640625	-733.2362060546875	362.5315856933594	-197.076416015625	-778.7520751953125	427.0800170898438	-194.2815704345703	-1045.085815429688	149.0682373046875	-406.4122619628906	-893.2559814453125	297.9072265625	-217.6854095458984	-803.7192993164062	107.9000625610352	-235.1919403076172	-947.0992431640624	322.9193420410156	-277.6672668457031	-962.4853515625	290.6949768066406	-304.3199157714844	-970.6996459960938	306.7216186523438	-251.1226959228516	-1123.278564453125	111.3579330444336	-376.1873168945312
